<?xml version="1.0" standalone="no"?>
<!DOCTYPE svg PUBLIC "-//W3C//DTD SVG 20010904//EN"
 "http://www.w3.org/TR/2001/REC-SVG-20010904/DTD/svg10.dtd">
<svg version="1.0" xmlns="http://www.w3.org/2000/svg"
 width="500.000000pt" height="500.000000pt" viewBox="0 0 500.000000 500.000000"
 preserveAspectRatio="xMidYMid meet">

<g transform="translate(0.000000,500.000000) scale(0.100000,-0.100000)"
fill="#000000" stroke="none">
<path d="M0 2500 l0 -2500 2500 0 2500 0 0 2500 0 2500 -2500 0 -2500 0 0
-2500z m2397 387 c107 -95 121 -111 112 -128 -10 -19 -11 -19 -39 3 -15 13
-82 71 -147 129 l-119 107 -144 -128 c-135 -119 -146 -127 -163 -112 -9 8 -16
16 -15 17 2 1 74 66 162 144 l158 141 37 -32 c20 -18 91 -82 158 -141z m-343
111 c-1 -10 -2 -21 -3 -25 0 -5 -17 -21 -36 -36 l-35 -28 0 56 0 56 38 -3 c28
-2 37 -7 36 -20z m-1094 -33 c19 -9 45 -27 58 -38 l22 -21 -22 -24 c-39 -41
-55 -45 -87 -21 -89 66 -219 8 -236 -105 -15 -96 53 -176 148 -176 69 0 87 12
87 60 l0 40 55 0 55 0 0 -160 0 -160 -55 0 -55 0 0 58 0 59 -77 -1 c-125 -1
-212 48 -259 149 -53 111 -13 257 85 317 18 12 50 27 70 35 48 18 166 12 211
-12z m625 14 c52 -15 119 -82 134 -134 6 -22 11 -113 11 -202 l0 -163 -60 0
-60 0 0 143 c0 78 -5 159 -11 180 -13 47 -48 70 -105 70 -36 0 -51 -5 -72 -27
-27 -26 -27 -27 -30 -196 l-3 -170 -66 0 -66 0 5 173 c4 146 8 179 25 218 43
96 172 143 298 108z m3118 -22 c33 -20 52 -41 71 -79 25 -50 26 -59 26 -225
l0 -173 -60 0 -60 0 0 150 c0 178 -10 212 -66 236 -31 13 -42 13 -78 2 -66
-21 -76 -52 -76 -235 l0 -153 -60 0 -60 0 0 173 c0 149 3 177 20 212 20 43 35
62 62 84 63 49 204 53 281 8z m-4373 -227 l0 -250 -60 0 -60 0 0 250 0 250 60
0 60 0 0 -250z m2470 79 l0 -171 29 -29 c25 -24 38 -29 79 -29 44 0 54 4 76
31 26 30 26 32 26 200 l0 169 66 0 66 0 -4 -172 c-3 -158 -5 -177 -27 -221
-28 -59 -77 -93 -153 -109 -110 -23 -216 22 -259 109 -22 44 -24 63 -27 221
l-4 172 66 0 66 0 0 -171z m700 -24 l0 -195 130 0 130 0 0 -55 0 -55 -190 0
-190 0 0 250 0 250 60 0 60 0 0 -195z m600 -55 l0 -250 -65 0 -65 0 0 250 0
250 65 0 65 0 0 -250z m-1820 150 c3 -3 38 -34 78 -69 l73 -64 -3 -146 -3
-146 -72 -3 -72 -3 -3 68 -3 68 -72 3 -73 3 0 -71 0 -70 -75 0 -75 0 0 149 0
148 53 49 c29 27 79 73 112 101 l59 53 36 -33 c19 -17 37 -34 40 -37z m2685
-590 c-8 -14 -4935 -12 -4935 1 0 5 1035 9 2471 9 1710 0 2468 -3 2464 -10z
m-2301 -151 c16 -15 0 -20 -29 -9 -35 13 -75 -5 -93 -42 -10 -23 -10 -33 2
-62 16 -39 47 -52 96 -42 31 6 42 -7 14 -18 -65 -25 -132 13 -141 80 -4 33 -1
45 21 71 15 18 37 34 49 36 27 5 69 -2 81 -14z m-1604 1 c0 -5 -22 -10 -50
-10 -49 0 -50 -1 -50 -30 0 -29 2 -30 45 -30 25 0 45 -4 45 -10 0 -5 -20 -10
-45 -10 -45 0 -45 0 -45 -35 l0 -35 50 0 c28 0 50 -4 50 -10 0 -6 -27 -10 -60
-10 l-60 0 0 95 0 95 60 0 c33 0 60 -4 60 -10z m650 -19 c0 -23 4 -28 18 -24
10 2 30 0 45 -6 25 -10 27 -14 27 -71 0 -73 -18 -80 -22 -9 -3 55 -21 78 -52
66 -12 -5 -16 -20 -16 -62 0 -30 -4 -55 -10 -55 -6 0 -10 38 -10 95 0 57 4 95
10 95 6 0 10 -13 10 -29z m1480 -12 c0 -14 7 -19 25 -19 14 0 25 -4 25 -10 0
-5 -12 -10 -26 -10 -23 0 -25 -3 -22 -42 2 -36 7 -44 26 -46 33 -5 27 -22 -8
-22 -35 0 -50 23 -50 74 0 19 -6 37 -12 40 -10 5 -10 7 0 12 6 3 12 14 12 23
0 10 3 21 6 24 11 10 24 -3 24 -24z m553 15 c-4 -12 -73 -15 -73 -3 0 12 10
15 44 15 22 0 32 -4 29 -12z m-1643 2 c0 -11 -19 -15 -25 -6 -3 5 1 10 9 10 9
0 16 -2 16 -4z m-906 -46 c5 -5 11 -34 14 -65 4 -46 2 -55 -12 -55 -13 0 -16
11 -16 55 0 50 -2 55 -24 61 -38 9 -46 -2 -46 -62 0 -30 -4 -54 -10 -54 -6 0
-10 28 -10 64 0 53 3 65 18 69 23 7 74 -1 86 -13z m152 10 c11 0 14 -16 14
-71 0 -92 -10 -109 -60 -109 -22 0 -40 5 -40 10 0 6 16 10 35 10 19 0 35 5 35
10 0 6 1 13 3 16 1 4 -14 8 -33 10 -37 4 -70 34 -70 63 0 40 49 75 88 65 8 -2
20 -4 28 -4z m152 -18 c6 -9 12 -24 12 -34 0 -15 -8 -18 -50 -18 -27 0 -50 -4
-50 -9 0 -18 31 -33 60 -29 19 3 29 1 27 -6 -7 -21 -72 -18 -92 3 -18 20 -23
70 -10 92 19 30 79 31 103 1z m150 1 c14 -20 16 -113 2 -113 -5 0 -10 20 -10
44 0 50 -21 79 -54 74 -18 -3 -21 -11 -24 -60 -4 -79 -22 -74 -22 6 0 59 2 65
23 69 33 7 70 -2 85 -20z m290 5 c7 -6 12 -33 12 -64 l0 -54 -48 0 c-51 0 -72
12 -72 42 0 22 29 38 70 38 28 0 30 2 19 21 -9 17 -17 20 -45 14 -39 -7 -45 1
-11 15 23 9 54 4 75 -12z m276 12 c24 -9 26 -14 26 -70 l0 -60 -39 0 c-57 0
-71 8 -71 40 0 30 15 40 61 40 18 0 29 5 29 14 0 18 -26 27 -56 20 -14 -4 -24
-2 -24 4 0 6 10 13 23 15 12 2 23 5 24 6 1 0 13 -3 27 -9z m214 -17 c6 -9 12
-25 12 -35 0 -15 -8 -18 -50 -18 -27 0 -50 -4 -50 -9 0 -19 31 -33 61 -27 22
4 29 2 27 -7 -3 -6 -20 -13 -39 -15 -43 -4 -72 24 -72 70 0 60 75 87 111 41z
m366 17 c68 -26 50 -130 -22 -130 -70 0 -99 77 -46 119 30 24 34 24 68 11z
m164 -6 c18 -12 22 -25 22 -70 0 -69 -18 -71 -22 -3 -3 55 -21 78 -52 66 -12
-5 -16 -20 -16 -62 0 -59 -19 -78 -21 -20 -3 90 -2 93 19 98 33 9 48 7 70 -9z
m130 10 c12 -4 22 -11 22 -16 0 -6 -11 -7 -24 -4 -28 7 -58 -2 -50 -15 3 -5
21 -16 40 -24 39 -16 52 -39 34 -60 -14 -17 -85 -21 -95 -5 -4 6 10 10 34 10
54 0 61 17 14 36 -54 23 -64 41 -37 68 17 17 27 19 62 10z m506 0 c23 -9 20
-27 -4 -19 -30 10 -60 -12 -60 -43 0 -36 17 -52 52 -52 15 0 28 -4 28 -10 0
-5 -10 -10 -22 -10 -21 0 -21 -1 -3 -13 10 -8 15 -19 11 -25 -9 -14 -46 -16
-46 -2 0 5 8 7 18 3 14 -5 13 -3 -3 10 -11 9 -16 17 -12 17 4 0 -4 11 -19 23
-19 17 -27 33 -26 55 1 39 8 51 36 62 27 11 31 11 50 4z m141 -6 c64 -29 41
-128 -30 -128 -72 0 -96 97 -31 128 28 14 31 14 61 0z m170 -13 c41 -40 33
-55 -30 -55 -54 0 -55 -1 -44 -21 9 -18 17 -21 50 -16 44 6 53 -9 13 -19 -59
-15 -105 30 -91 88 6 23 37 46 65 47 7 1 24 -10 37 -24z m136 15 c5 0 9 -4 9
-9 0 -5 -15 -8 -32 -7 -45 2 -43 -23 2 -38 63 -20 48 -76 -21 -76 -21 0 -41 5
-44 10 -4 6 12 10 39 10 59 0 61 21 6 43 -29 11 -40 21 -40 37 0 22 34 42 58
34 8 -2 18 -4 23 -4z m-1991 -10 c0 -5 -11 -10 -25 -10 -24 0 -25 -3 -25 -55
0 -30 -4 -55 -10 -55 -6 0 -10 28 -10 65 l0 65 35 0 c19 0 35 -4 35 -10z m50
-55 c0 -37 -4 -65 -10 -65 -6 0 -10 28 -10 65 0 37 4 65 10 65 6 0 10 -28 10
-65z m1240 55 c0 -5 -11 -10 -25 -10 -24 0 -25 -3 -25 -55 0 -30 -4 -55 -10
-55 -9 0 -12 11 -12 45 0 84 0 85 37 85 19 0 35 -4 35 -10z m45 -26 c-4 -60 3
-74 41 -74 l34 0 0 55 c0 30 5 55 10 55 6 0 10 -28 10 -65 l0 -65 -42 0 c-61
0 -71 10 -76 74 -4 45 -2 56 10 56 11 0 14 -10 13 -36z"/>
<path d="M1270 2060 c-11 -11 -20 -24 -20 -30 0 -13 37 -50 49 -50 29 0 41 14
41 50 0 25 -5 40 -16 44 -25 9 -33 7 -54 -14z"/>
<path d="M1428 2069 c-30 -17 -20 -29 22 -29 43 0 52 13 21 30 -23 12 -22 12
-43 -1z"/>
<path d="M1855 2011 c-11 -19 5 -31 41 -31 28 0 35 4 32 18 -4 19 -62 30 -73
13z"/>
<path d="M2155 2010 c-11 -17 5 -30 36 -30 22 0 29 5 29 20 0 15 -7 20 -29 20
-17 0 -33 -4 -36 -10z"/>
<path d="M2358 2069 c-30 -17 -20 -29 22 -29 43 0 52 13 21 30 -23 12 -22 12
-43 -1z"/>
<path d="M2742 2064 c-24 -17 -29 -53 -10 -72 19 -19 55 -14 72 9 16 23 12 47
-12 67 -20 15 -23 15 -50 -4z"/>
<path d="M3678 2069 c-21 -12 -24 -59 -6 -77 7 -7 21 -12 33 -12 12 0 26 5 33
12 19 19 15 66 -7 78 -24 12 -31 12 -53 -1z"/>
<path d="M3835 2060 c-18 -20 -17 -20 23 -20 43 0 51 7 30 28 -17 17 -32 15
-53 -8z"/>
</g>
</svg>
